<svg xmlns="http://www.w3.org/2000/svg" width="200" height="60" viewBox="0 0 200 60" fill="none">
  <path d="M14.828 15.625C9.02 15.625 5 19.609 5 25.391C5 31.172 9.02 35.156 14.828 35.156C20.637 35.156 24.657 31.172 24.657 25.391C24.657 19.609 20.637 15.625 14.828 15.625ZM14.828 31.016C11.554 31.016 9.46 28.71 9.46 25.391C9.46 22.07 11.554 19.766 14.828 19.766C18.103 19.766 20.196 22.07 20.196 25.391C20.196 28.71 18.103 31.016 14.828 31.016Z" fill="#2563EB"/>
  <path d="M36.8906 18.125C33.0469 18.125 30.3516 20.703 30.3516 25C30.3516 29.298 33.0469 31.875 36.8906 31.875C39.8438 31.875 41.7969 30.508 42.5391 28.008H38.4766C38.1641 28.711 37.5781 29.102 36.8906 29.102C35.8984 29.102 35.0781 28.28 35.0781 27.109V27.031H42.6953V25.82C42.6953 21.054 40.3906 18.125 36.8906 18.125ZM35.0781 24.453C35.0781 23.086 35.8984 20.898 36.8906 20.898C37.8828 20.898 38.7031 23.086 38.7031 24.453H35.0781Z" fill="#2563EB"/>
  <path d="M49.063 18.125C45.219 18.125 42.523 20.703 42.523 25C42.523 29.298 45.219 31.875 49.063 31.875C52.016 31.875 53.969 30.508 54.711 28.008H50.648C50.336 28.711 49.75 29.102 49.063 29.102C48.07 29.102 47.25 28.28 47.25 27.109V27.031H54.867V25.82C54.867 21.054 52.563 18.125 49.063 18.125ZM47.25 24.453C47.25 23.086 48.07 20.898 49.063 20.898C50.055 20.898 50.875 23.086 50.875 24.453H47.25Z" fill="#2563EB"/>
  <path d="M70.5861 18.125H66.1328V31.875H70.5861V18.125Z" fill="#2563EB"/>
  <path d="M81.9922 18.125C78.1484 18.125 75.4531 20.703 75.4531 25C75.4531 29.298 78.1484 31.875 81.9922 31.875C84.9453 31.875 86.8984 30.508 87.6406 28.008H83.5781C83.2656 28.711 82.6797 29.102 81.9922 29.102C81 29.102 80.1797 28.28 80.1797 27.109V27.031H87.7969V25.82C87.7969 21.054 85.4922 18.125 81.9922 18.125ZM80.1797 24.453C80.1797 23.086 81 20.898 81.9922 20.898C82.9844 20.898 83.8047 23.086 83.8047 24.453H80.1797Z" fill="#2563EB"/>
  <path d="M97.2266 18.125C94.1172 18.125 91.7109 20.82 91.7109 25C91.7109 29.18 94.1172 31.875 97.2266 31.875C98.375 31.875 99.4453 31.445 100.086 30.664V31.875H104.539V18.125H100.086V19.336C99.4453 18.555 98.375 18.125 97.2266 18.125ZM98.3047 28.711C96.7969 28.711 95.6172 27.188 95.6172 25C95.6172 22.812 96.7969 21.289 98.3047 21.289C99.8125 21.289 100.992 22.812 100.992 25C100.992 27.188 99.8125 28.711 98.3047 28.711Z" fill="#2563EB"/>
  <path d="M116.328 18.125C113.219 18.125 110.813 20.82 110.813 25C110.813 29.18 113.219 31.875 116.328 31.875C117.477 31.875 118.547 31.445 119.188 30.664V31.875H123.641V12.5H119.188V19.336C118.547 18.555 117.477 18.125 116.328 18.125ZM117.406 28.711C115.898 28.711 114.719 27.188 114.719 25C114.719 22.812 115.898 21.289 117.406 21.289C118.914 21.289 120.094 22.812 120.094 25C120.094 27.188 118.914 28.711 117.406 28.711Z" fill="#2563EB"/>
  <path d="M132.656 18.125C129.703 18.125 127.227 20.82 127.227 25C127.227 29.18 129.703 31.875 132.656 31.875C133.883 31.875 134.875 31.445 135.516 30.664V31.875H139.969V12.5H135.516V19.336C134.875 18.555 133.805 18.125 132.656 18.125V18.125ZM133.883 28.711C132.297 28.711 131.133 27.188 131.133 25C131.133 22.812 132.297 21.289 133.883 21.289C135.469 21.289 136.633 22.812 136.633 25C136.633 27.188 135.469 28.711 133.883 28.711Z" fill="#2563EB"/>
  <path d="M155.313 18.125H150.859V31.875H155.313V18.125Z" fill="#2563EB"/>
  <path d="M157.5 31.875H168.828V28.047H162.109V12.5H157.5V31.875Z" fill="#2563EB"/>
  <path d="M178.047 18.125C174.203 18.125 171.508 20.703 171.508 25C171.508 29.298 174.203 31.875 178.047 31.875C181 31.875 182.953 30.508 183.695 28.008H179.633C179.32 28.711 178.734 29.102 178.047 29.102C177.055 29.102 176.234 28.28 176.234 27.109V27.031H183.852V25.82C183.852 21.054 181.547 18.125 178.047 18.125ZM176.234 24.453C176.234 23.086 177.055 20.898 178.047 20.898C179.039 20.898 179.859 23.086 179.859 24.453H176.234Z" fill="#2563EB"/>
  <path d="M155.312 12.5H150.859V16.25H155.312V12.5Z" fill="#2563EB"/>
  <path d="M66.133 12.5H70.586V16.25H66.133V12.5Z" fill="#2563EB"/>
  <path d="M186.25 18.125H190.703V31.875H195V18.125H198.75V15H195V12.5H190.703V15H186.25V18.125Z" fill="#2563EB"/>
  <path d="M6.992 44.687H5.781V45.469H6.992V44.687Z" fill="#2563EB"/>
  <path d="M9.024 45.937H7.891V44.687H7.188V47.969H7.891V46.719H9.024V47.969H9.727V44.687H9.024V45.937Z" fill="#2563EB"/>
  <path d="M12.031 44.687H11.328V47.969H12.031V44.687Z" fill="#2563EB"/>
  <path d="M14.844 44.648C13.516 44.648 13.086 45.625 13.086 46.328C13.086 47.031 13.516 48.008 14.844 48.008C16.172 48.008 16.602 47.031 16.602 46.328C16.602 45.625 16.172 44.648 14.844 44.648ZM14.844 47.344C14.531 47.344 13.789 47.148 13.789 46.328C13.789 45.508 14.531 45.312 14.844 45.312C15.156 45.312 15.898 45.508 15.898 46.328C15.898 47.148 15.156 47.344 14.844 47.344Z" fill="#2563EB"/>
  <path d="M19.297 44.687H18.633V47.969H19.336V45.703L20.195 47.969H20.859L21.719 45.703V47.969H22.422V44.687H21.758L20.527 47.656L19.297 44.687Z" fill="#2563EB"/>
  <path d="M25.547 44.648C24.219 44.648 23.789 45.625 23.789 46.328C23.789 47.031 24.219 48.008 25.547 48.008C26.875 48.008 27.305 47.031 27.305 46.328C27.305 45.625 26.875 44.648 25.547 44.648ZM25.547 47.344C25.234 47.344 24.492 47.148 24.492 46.328C24.492 45.508 25.234 45.312 25.547 45.312C25.859 45.312 26.602 45.508 26.602 46.328C26.602 47.148 25.859 47.344 25.547 47.344Z" fill="#2563EB"/>
  <path d="M30.586 44.687H29.883V47.969H30.586V44.687Z" fill="#2563EB"/>
  <path d="M32.227 44.687V47.969H32.93V47.266H34.531V47.969H35.234V44.687H34.531V46.562H32.93V44.687H32.227Z" fill="#2563EB"/>
  <path d="M38.476 45.352H40V44.687H37.773V47.969H40V47.305H38.476V46.484H39.882V45.82H38.476V45.352Z" fill="#2563EB"/>
  <path d="M42.5 44.687H41.797V47.969H44.023V47.305H42.5V44.687Z" fill="#2563EB"/>
  <path d="M45.859 45.937H44.727V44.687H44.023V47.969H44.727V46.719H45.859V47.969H46.562V44.687H45.859V45.937Z" fill="#2563EB"/>
  <path d="M48.867 44.687V47.969H49.57V47.266H51.172V47.969H51.875V44.687H51.172V46.562H49.57V44.687H48.867Z" fill="#2563EB"/>
  <path d="M55.117 45.352H56.641V44.687H54.414V47.969H56.641V47.305H55.117V46.484H56.523V45.82H55.117V45.352Z" fill="#2563EB"/>
  <path d="M62.5 44.687V48.008L60 44.687H59.297V47.969H60V44.648L62.5 47.969H63.203V44.687H62.5Z" fill="#2563EB"/>
  <path d="M67.5 44.687H66.797V47.969H67.5V44.687Z" fill="#2563EB"/>
  <path d="M70.313 44.648C68.984 44.648 68.555 45.625 68.555 46.328C68.555 47.031 68.984 48.008 70.313 48.008C71.641 48.008 72.07 47.031 72.07 46.328C72.07 45.625 71.641 44.648 70.313 44.648ZM70.313 47.344C70 47.344 69.258 47.148 69.258 46.328C69.258 45.508 70 45.312 70.313 45.312C70.625 45.312 71.367 45.508 71.367 46.328C71.367 47.148 70.625 47.344 70.313 47.344Z" fill="#2563EB"/>
  <path d="M75.547 44.687H74.844V47.969H75.547V44.687Z" fill="#2563EB"/>
  <path d="M77.658 44.687V47.969H78.439V45.469H78.791L80.002 47.969H80.822L79.494 45.352C80.041 45.273 80.471 44.961 80.471 44.414C80.471 43.555 79.729 44.687 78.908 44.687H77.658ZM78.439 45.312V44.414H78.908C79.846 44.414 79.768 45.312 78.908 45.312H78.439Z" fill="#2563EB"/>
  <path d="M83.086 47.969H85.312V47.305H83.789V46.562H85.195V45.898H83.789V45.352H85.312V44.687H83.086V47.969Z" fill="#2563EB"/>
  <path d="M88.789 45.352H90.312V44.687H88.086V47.969H90.312V47.305H88.789V46.484H90.195V45.82H88.789V45.352Z" fill="#2563EB"/>
  <path d="M92.5 44.687V47.969H93.203V46.484H94.609V45.82H93.203V45.352H94.727V44.687H92.5Z" fill="#2563EB"/>
  <path d="M97.5 45.937H96.367V44.687H95.664V47.969H96.367V46.719H97.5V47.969H98.203V44.687H97.5V45.937Z" fill="#2563EB"/>
  <path d="M100.508 44.687V47.969H101.211V47.266H102.812V47.969H103.516V44.687H102.812V46.562H101.211V44.687H100.508Z" fill="#2563EB"/>
  <path d="M105.937 47.969H108.164V47.305H106.641V46.562H108.047V45.898H106.641V45.352H108.164V44.687H105.937V47.969Z" fill="#2563EB"/>
  <path d="M112.578 44.687H111.875V47.969H114.102V47.305H112.578V44.687Z" fill="#2563EB"/>
  <path d="M117.578 44.687H116.875V47.969H117.578V44.687Z" fill="#2563EB"/>
  <path d="M120.39 44.648C119.062 44.648 118.632 45.625 118.632 46.328C118.632 47.031 119.062 48.008 120.39 48.008C121.718 48.008 122.148 47.031 122.148 46.328C122.148 45.625 121.718 44.648 120.39 44.648ZM120.39 47.344C120.077 47.344 119.335 47.148 119.335 46.328C119.335 45.508 120.077 45.312 120.39 45.312C120.702 45.312 121.445 45.508 121.445 46.328C121.445 47.148 120.702 47.344 120.39 47.344Z" fill="#2563EB"/>
  <path d="M124.141 47.969H126.367V47.305H124.844V46.562H126.25V45.898H124.844V45.352H126.367V44.687H124.141V47.969Z" fill="#2563EB"/>
  <path d="M129.844 45.352H131.367V44.687H129.141V47.969H131.367V47.305H129.844V46.484H131.25V45.82H129.844V45.352Z" fill="#2563EB"/>
  <path d="M133.828 46.054C132.969 46.054 132.5 46.25 132.5 46.836C132.5 47.422 132.969 47.969 133.828 47.969H135.039V47.305H133.828C133.555 47.305 133.203 47.227 133.203 46.836C133.203 46.445 133.555 46.367 133.828 46.367H134.336C134.609 46.367 134.883 46.289 134.883 45.977C134.883 45.664 134.609 45.352 134.336 45.352H132.969V44.687H134.336C135.195 44.687 135.585 45.078 135.585 45.977C135.585 46.875 135.195 47.969 134.336 47.969H133.867V46.836H133.164V47.969H134.336C135.703 47.969 136.289 47.109 136.289 45.977C136.289 44.844 135.703 44.648 134.336 44.648H132.969C132.696 44.648 132.266 44.727 132.266 45.039C132.266 45.352 132.696 46.054 132.969 46.054H133.828Z" fill="#2563EB"/>
  <path d="M138.203 47.969H140.43V47.305H138.906V46.562H140.313V45.898H138.906V45.352H140.43V44.687H138.203V47.969Z" fill="#2563EB"/>
  <path d="M144.531 44.687H143.867V47.969H144.57V45.703L145.43 47.969H146.094L146.953 45.703V47.969H147.656V44.687H146.992L145.742 47.656L144.531 44.687Z" fill="#2563EB"/>
  <path d="M150.781 44.648C149.453 44.648 149.023 45.625 149.023 46.328C149.023 47.031 149.453 48.008 150.781 48.008C152.109 48.008 152.539 47.031 152.539 46.328C152.539 45.625 152.109 44.648 150.781 44.648ZM150.781 47.344C150.469 47.344 149.727 47.148 149.727 46.328C149.727 45.508 150.469 45.312 150.781 45.312C151.094 45.312 151.836 45.508 151.836 46.328C151.836 47.148 151.094 47.344 150.781 47.344Z" fill="#2563EB"/>
  <path d="M155.664 47.969H155.781L157.109 44.687H156.367L155.703 46.836L155.039 44.687H154.297L155.664 47.969Z" fill="#2563EB"/>
  <path d="M159.844 45.352H161.367V44.687H159.141V47.969H161.367V47.305H159.844V46.484H161.25V45.82H159.844V45.352Z" fill="#2563EB"/>
  <path d="M163.828 44.687V47.969H166.055V47.305H164.531V44.687H163.828Z" fill="#2563EB"/>
  <path d="M169.726 44.687H169.023V47.969H169.726V44.687Z" fill="#2563EB"/>
  <path d="M173.203 45.352V44.687H170.977V47.969H171.68V46.484H173.047V45.82H171.68V45.352H173.203Z" fill="#2563EB"/>
  <path d="M175.312 47.969H175.43L176.758 44.687H176.016L175.352 46.836L174.688 44.687H173.945L175.312 47.969Z" fill="#2563EB"/>
  <path d="M179.492 45.352H181.016V44.687H178.789V47.969H181.016V47.305H179.492V46.484H180.898V45.82H179.492V45.352Z" fill="#2563EB"/>
  <path d="M183.515 44.687V47.969H184.218V46.484H185.624V45.82H184.218V45.352H185.741V44.687H183.515Z" fill="#2563EB"/>
</svg> 